<svg width="37" height="37" viewBox="0 0 37 37" fill="none" xmlns="http://www.w3.org/2000/svg">
<g clip-path="url(#clip0)">
<path d="M29.2817 20.4217C27.6915 22.3449 25.8924 24.3213 23.9507 26.2631C22.0089 28.2048 20.0327 30.0047 18.1099 31.5943C18.2396 31.599 18.3691 31.6042 18.4999 31.6042C21.361 31.601 24.1041 30.4629 26.1272 28.4398C28.1503 26.4167 29.2884 23.6736 29.2916 20.8125C29.2916 20.6815 29.2864 20.5516 29.2817 20.4217Z" fill="#939393"/>
<path d="M33.763 5.55096C32.268 4.05535 29.53 4.58568 25.3926 7.17183C23.869 8.13774 22.3994 9.18636 20.9905 10.313C19.1989 9.88656 17.328 9.92604 15.5559 10.4277C13.7839 10.9293 12.1699 11.8764 10.8676 13.1786C9.56538 14.4809 8.61832 16.0949 8.11668 17.8669C7.61505 19.639 7.57556 21.5099 8.00199 23.3015C6.87531 24.7104 5.82668 26.1799 4.86084 27.7036C2.2745 31.8412 1.74378 34.5792 3.23804 36.075C3.52334 36.353 3.86248 36.5697 4.23461 36.7118C4.60674 36.8539 5.00399 36.9184 5.40196 36.9013C6.93843 36.9013 8.99405 36.0883 11.6085 34.4539C14.9988 32.3341 18.9948 29.0388 22.8604 25.1739C26.7259 21.3089 30.0214 17.3123 32.1404 13.922C34.7266 9.7838 35.2573 7.0458 33.763 5.55096ZM29.0687 13.0009C27.062 16.0424 24.0835 19.5915 20.6814 22.9926C17.2793 26.3937 13.7312 29.3732 10.6897 31.3799C7.69673 33.3543 6.08396 33.802 5.49099 33.8228C5.51181 33.2302 5.95947 31.6171 7.93396 28.6241C8.3716 27.9608 8.85896 27.2723 9.38235 26.5675C9.95052 27.4653 10.647 28.2751 11.4495 28.9712C14.3379 26.8238 17.0596 24.4609 19.5913 21.9027C22.1494 19.3711 24.5124 16.6496 26.6598 13.7615C25.9636 12.9585 25.1536 12.2618 24.2556 11.6935C24.9603 11.1692 25.6489 10.6828 26.3122 10.2451C29.3051 8.27065 30.9179 7.82299 31.5109 7.80218C31.49 8.39495 31.0424 10.0079 29.0679 13.0009H29.0687Z" fill="#939393"/>
<path d="M4.62435 6.16667C5.64618 6.16784 6.62582 6.57428 7.34836 7.29682C8.0709 8.01936 8.47734 8.99901 8.47852 10.0208C8.47852 10.2253 8.55973 10.4213 8.70429 10.5659C8.84885 10.7105 9.04491 10.7917 9.24935 10.7917C9.45379 10.7917 9.64985 10.7105 9.79441 10.5659C9.93897 10.4213 10.0202 10.2253 10.0202 10.0208C10.0214 8.99901 10.4278 8.01936 11.1503 7.29682C11.8729 6.57428 12.8525 6.16784 13.8744 6.16667C14.0788 6.16667 14.2749 6.08545 14.4194 5.9409C14.564 5.79634 14.6452 5.60027 14.6452 5.39583C14.6452 5.1914 14.564 4.99533 14.4194 4.85077C14.2749 4.70621 14.0788 4.625 13.8744 4.625C12.8525 4.62383 11.8729 4.21739 11.1503 3.49485C10.4278 2.7723 10.0214 1.79266 10.0202 0.770833C10.0202 0.566396 9.93897 0.370331 9.79441 0.225772C9.64985 0.0812126 9.45379 0 9.24935 0C9.04491 0 8.84885 0.0812126 8.70429 0.225772C8.55973 0.370331 8.47852 0.566396 8.47852 0.770833C8.47734 1.79266 8.0709 2.7723 7.34836 3.49485C6.62582 4.21739 5.64618 4.62383 4.62435 4.625C4.41991 4.625 4.22385 4.70621 4.07929 4.85077C3.93473 4.99533 3.85352 5.1914 3.85352 5.39583C3.85352 5.60027 3.93473 5.79634 4.07929 5.9409C4.22385 6.08545 4.41991 6.16667 4.62435 6.16667Z" fill="#939393"/>
<path d="M29.2917 33.9167C30.1431 33.9167 30.8334 33.2264 30.8334 32.375C30.8334 31.5236 30.1431 30.8333 29.2917 30.8333C28.4402 30.8333 27.75 31.5236 27.75 32.375C27.75 33.2264 28.4402 33.9167 29.2917 33.9167Z" fill="#939393"/>
<path d="M3.08268 21.5833C3.93412 21.5833 4.62434 20.8931 4.62434 20.0417C4.62434 19.1902 3.93412 18.5 3.08268 18.5C2.23124 18.5 1.54102 19.1902 1.54102 20.0417C1.54102 20.8931 2.23124 21.5833 3.08268 21.5833Z" fill="#939393"/>
<path d="M33.9167 20.0417C34.7681 20.0417 35.4584 19.3514 35.4584 18.5C35.4584 17.6486 34.7681 16.9583 33.9167 16.9583C33.0652 16.9583 32.375 17.6486 32.375 18.5C32.375 19.3514 33.0652 20.0417 33.9167 20.0417Z" fill="#939393"/>
</g>
<defs>
<clipPath id="clip0">
<rect width="37" height="37" fill="white"/>
</clipPath>
</defs>
</svg>
